<svg width="140" height="64" viewBox="0 0 140 64" fill="none" xmlns="http://www.w3.org/2000/svg">
<path fill-rule="evenodd" clip-rule="evenodd" d="M13.007 51.3325C12.7153 49.2129 11.6157 47.4112 9.16987 47.4112C6.72188 47.4112 5.62116 49.2129 5.32617 51.3325H13.007ZM18.098 57.3331C17.4563 60.5086 14.94 63.7919 9.29115 63.7919C3.32636 63.7919 0 60.5086 0 53.414C0 46.6384 3.64117 43.1065 9.14585 43.1065C14.8178 43.1065 18.3423 46.6703 18.3423 54.6492V55.2168H5.32637C5.59935 57.6884 6.82224 59.4846 9.48928 59.4846C11.1503 59.4846 12.0033 58.4594 12.6175 57.3331H18.098Z" fill="#1A1A1A"/>
<path fill-rule="evenodd" clip-rule="evenodd" d="M38.8911 54.8896C38.1074 60.3563 35.5383 63.4647 29.7188 63.4647C23.8509 63.4647 20.4265 60.1814 20.4265 53.122C20.4265 46.2034 24.0226 42.7782 29.7188 42.7782C34.6632 42.7782 38.1844 44.9296 38.6434 51.0057H33.317C33.0716 48.9213 31.9951 47.718 29.7958 47.718C27.371 47.718 25.907 49.6638 25.907 53.122C25.907 56.5813 27.3225 58.5227 29.8179 58.5227C31.7738 58.5227 33.0716 57.3215 33.4128 54.8896H38.8911Z" fill="#1A1A1A"/>
<path fill-rule="evenodd" clip-rule="evenodd" d="M40.9178 36.847H46.1044V46.3108H46.1506C47.0554 44.4398 48.9652 43.0605 51.5816 43.0605C54.832 43.0605 57.204 45.3242 57.204 50.0858V62.6867H52.0207V52.3418C52.0207 49.9065 51.0675 48.7131 49.3295 48.7131C47.4968 48.7131 46.1044 50.1562 46.1044 53.2965V62.6867H40.9178V36.847Z" fill="#1A1A1A"/>
<path fill-rule="evenodd" clip-rule="evenodd" d="M60.043 62.6876H65.2241V43.5575H60.043V62.6876Z" fill="#1A1A1A"/>
<path fill-rule="evenodd" clip-rule="evenodd" d="M76.3525 48.2843C73.9761 48.2843 72.6816 49.9793 72.6816 53.1537C72.6816 56.3336 73.9761 58.0264 76.3525 58.0264C78.7708 58.0264 80.0421 56.1202 80.0421 53.1537C80.0421 50.1904 78.7708 48.2843 76.3525 48.2843ZM80.1901 60.4287H80.1372C79.0409 62.3723 77.206 63.4645 75.1026 63.4645C70.408 63.4645 67.3535 59.7236 67.3535 53.0866C67.3535 47.544 70.1868 43.0607 75.053 43.0607C77.3524 43.0607 79.1147 44.1573 79.9941 45.992H80.0426V36.922H85.2248V62.688H80.1901V60.4287Z" fill="#1A1A1A"/>
<path fill-rule="evenodd" clip-rule="evenodd" d="M87.9688 43.5578H93.0023V46.3098H93.053C94.1008 44.4388 96.0084 43.0606 98.6281 43.0606C101.882 43.0606 104.249 45.3243 104.249 50.0859V62.6879H99.0651V52.3419C99.0651 49.9077 98.1097 48.7132 96.3771 48.7132C94.5422 48.7132 93.152 50.1563 93.152 53.2977V62.6879H87.9688V43.5578Z" fill="#1A1A1A"/>
<path fill-rule="evenodd" clip-rule="evenodd" d="M118.874 53.7559C118.485 53.933 117.847 54.1057 116.894 54.285L113.395 54.8889C112.343 55.0594 111.904 55.661 111.904 56.827C111.904 58.3119 112.833 59.1555 114.227 59.1555C117.211 59.1555 118.874 57.5364 118.874 54.9208V53.7559ZM107.182 49.5558C107.674 43.8735 111.415 43.0606 115.472 43.0606C120.295 43.0606 123.909 44.1903 123.909 49.5558V59.2286C123.909 60.8521 124.033 61.5924 124.447 62.6868H119.264C119.095 62.1236 119.024 61.4549 118.996 60.9225C117.504 62.9706 115.376 63.4634 112.763 63.4634C108.531 63.4634 106.282 61.4868 106.282 57.4984C106.282 53.1525 108.283 51.6016 112.003 51.2486L117.162 50.7558C118.508 50.6139 118.726 50.1893 118.726 49.2027C118.726 47.8629 117.724 47.1535 115.453 47.1535C113.543 47.1535 112.615 47.9322 112.369 49.5558H107.182Z" fill="#1A1A1A"/>
<path fill-rule="evenodd" clip-rule="evenodd" d="M84.3664 20.371C79.6839 26.9904 72.9277 32.2316 63.0752 36.5181L63.237 38.4408C86.6426 30.1044 105.357 20.4029 126.304 41.7747C122.504 30.7973 126.169 25.3878 139.806 18.3548C127.055 21.1861 125.787 23.9898 122.753 26.2876C123.822 22.3905 128.601 15.6061 136.329 11.6793C128.705 13.2973 123.083 17.4045 119.014 23.0241C120.022 19.2491 124.676 10.6938 131.678 6.16314C127.019 7.58976 118.512 11.797 113.866 20.5646C117.146 6.9089 127.054 1.6138 126.211 2.08788C112.268 7.62716 108.896 14.8273 105.801 19.5131C106.871 11.9455 111.449 5.48118 119.038 0.208084C106.824 4.84762 100.369 11.8531 96.2717 19.9981C98.8518 11.2756 102.664 5.58238 110.462 0.483068C100.189 3.53099 92.9288 9.78853 84.3664 20.371Z" fill="#FF4C00"/>
<path fill-rule="evenodd" clip-rule="evenodd" d="M62.2736 35.7706C63.3412 35.7706 64.2086 36.634 64.2086 37.6999C64.2086 38.7679 63.3412 39.6314 62.2736 39.6314C61.2081 39.6314 60.3418 38.7679 60.3418 37.6999C60.3418 36.634 61.2081 35.7706 62.2736 35.7706Z" fill="#EF5022"/>
<path fill-rule="evenodd" clip-rule="evenodd" d="M64.8876 38.1706C64.8876 39.5862 63.7374 40.7368 62.3175 40.7368C60.9031 40.7368 59.7539 39.5862 59.7539 38.1706C59.7539 36.755 60.9031 35.6055 62.3175 35.6055C63.7374 35.6055 64.8876 36.755 64.8876 38.1706Z" fill="#FF4C00"/>
</svg>
