<svg xmlns="http://www.w3.org/2000/svg" height="56" viewBox="0 0 155 56" class="_icon_1gvx7_1"><path fill="#02E68D" fill-rule="evenodd" d="m31.233.754 1.74 3.013a15.38 15.38 0 0 1 1.562 11.543l-9.657 37.162a4.365 4.365 0 0 1-4.227 3.27H4.286c-3.295 0-5.354-3.567-3.706-6.418L28.617.754c.583-1.005 2.036-1.005 2.616 0m12.468 21.594L59.27 49.317l.003-.004c1.648 2.855-.41 6.425-3.71 6.425H33.678c-2.415 0-3.402-3.1-1.435-4.499l7.926-5.625a6.38 6.38 0 0 0 2.638-5.93l-1.908-16.408c-.191-1.625 1.985-2.348 2.803-.928m43.2 12.35h-.021c-.735 0-.953-.294-.953-1.176v-.92l-.038-4.816c0-3.678-2.6-6.03-7.876-6.03-4.843 0-6.768 2.084-7.528 3.629-.371.752.185 1.63 1.02 1.63h2.673a.85.85 0 0 0 .76-.484c.264-.52.998-1.284 3.041-1.284s3.297.737 3.297 2.572v.257l-.303.015c-3.127.154-11.786.579-11.786 6.016 0 2.646 1.906 4.928 6.445 4.928 2.893 0 4.91-.882 6.119-2.352.812 1.511 1.861 1.984 3.241 1.984s2.362-.816 2.362-1.82v-1.694a.455.455 0 0 0-.452-.454m-5.629-2.758c0 2.502-2.71 3.678-4.798 3.64-1.32-.036-2.455-.55-2.455-1.581-.037-2.502 4.543-2.833 7.253-3.016zm15.639-6.47c2.118 0 3.045.998 3.423 1.653.2.343.564.555.96.555h3.42a.542.542 0 0 0 .526-.681c-.408-1.556-2.036-5.238-8.333-5.238-5.789 0-9.048 3.492-9.048 8.495 0 5.368 3.26 8.789 9.048 8.789 6.286 0 7.907-4.233 8.304-5.908a.545.545 0 0 0-.527-.674h-3.304c-.442 0-.85.257-1.024.667-.363.848-1.283 2.203-3.449 2.203-2.822 0-4.25-2.058-4.25-5.073s1.428-4.78 4.25-4.78zm50.479-3.715c-2.417.038-3.994 1.14-4.98 2.684v-1.86a.453.453 0 0 0-.452-.455h-3.635a.453.453 0 0 0-.452.454v15.635c0 .253.204.454.452.454h3.816a.453.453 0 0 0 .453-.454v-7.118c0-3.384 1.209-5.624 4.357-5.587 2.307.037 3.297 1.544 3.297 4.485v6.18a2.493 2.493 0 0 0 2.488 2.497h1.784a.45.45 0 0 0 .452-.454v-8.223c0-4.817-1.576-8.346-7.583-8.238zm-20.381 0c-6.008 0-9.379 3.898-9.379 8.64s3.371 8.64 9.379 8.64 9.378-3.823 9.378-8.64-3.371-8.64-9.378-8.64m0 13.569c-3.115 0-4.58-2.278-4.58-4.929 0-2.832 1.465-4.928 4.58-4.928s4.58 2.096 4.58 4.928c0 2.647-1.539 4.929-4.58 4.929M117.712 22.6a.477.477 0 0 0-.475-.476h-1.469c-2.269 0-3.619 1.139-4.394 2.401-.011.019-.037.011-.037-.011V22.6a.474.474 0 0 0-.475-.476h-3.664a.474.474 0 0 0-.474.476v15.594c0 .264.211.476.474.476h3.775a.474.474 0 0 0 .475-.476v-4.56c0-6.105.475-7.538 4.432-7.538h.022c.998 0 1.81-.812 1.81-1.817zM82.036 52.85h-.015c-.53 0-.69-.212-.69-.852v-.667l-.026-3.496c0-2.67-1.887-4.375-5.714-4.375-3.516 0-4.91 1.512-5.462 2.633a.824.824 0 0 0 .737 1.184h1.94a.62.62 0 0 0 .553-.35c.189-.38.723-.931 2.206-.931s2.392.532 2.392 1.869v.186l-.235.012c-2.281.114-8.535.427-8.535 4.363 0 1.921 1.383 3.574 4.676 3.574 2.099 0 3.56-.64 4.439-1.709.59 1.099 1.35 1.441 2.35 1.441 1.002 0 1.714-.592 1.714-1.322v-1.228a.33.33 0 0 0-.33-.332m-4.08-2c0 1.814-1.965 2.67-3.481 2.644-.957-.026-1.78-.398-1.78-1.146-.026-1.814 3.296-2.056 5.262-2.19zm35.871 2h-.015c-.53 0-.69-.212-.69-.852v-.667l-.026-3.496c0-2.67-1.887-4.375-5.714-4.375-3.515 0-4.91 1.512-5.462 2.633a.824.824 0 0 0 .738 1.184h1.939a.62.62 0 0 0 .553-.35c.189-.38.723-.931 2.206-.931s2.392.532 2.392 1.869v.186l-.235.012c-2.281.114-8.535.427-8.535 4.363 0 1.921 1.383 3.574 4.676 3.574 2.099 0 3.56-.64 4.439-1.709.589 1.099 1.35 1.441 2.351 1.441s1.713-.592 1.713-1.322v-1.228a.33.33 0 0 0-.33-.332m-4.079-2c0 1.814-1.965 2.67-3.482 2.644-.957-.026-1.78-.398-1.78-1.146-.026-1.814 3.297-2.056 5.262-2.19zm39.719-7.393c-1.754.026-2.896.826-3.615 1.947v-1.352a.33.33 0 0 0-.33-.331h-2.637a.33.33 0 0 0-.33.331v11.345c0 .182.148.331.33.331h2.77c.182 0 .33-.149.33-.331v-5.168c0-2.453.875-4.084 3.163-4.054 1.677.026 2.392 1.12 2.392 3.254v4.486a1.81 1.81 0 0 0 1.806 1.813h1.294c.182 0 .33-.149.33-.331v-5.968c0-3.496-1.142-6.058-5.503-5.976zm-54.519.268h-1.264a2.72 2.72 0 0 0-2.51 1.679l-2.786 6.724-2.763-6.717a2.72 2.72 0 0 0-2.514-1.686h-1.264a.33.33 0 0 0-.3.461l5.05 11.352c.052.12.17.194.3.194h2.978a.33.33 0 0 0 .3-.194l5.074-11.352a.33.33 0 0 0-.3-.461m4.547 0H96.75a.33.33 0 0 0-.33.331v11.345c0 .182.149.331.33.331h2.745c.181 0 .33-.149.33-.331V44.056a.33.33 0 0 0-.33-.331m22.175 0h-2.54v-2.692a.327.327 0 0 0-.326-.328h-2.774a.33.33 0 0 0-.327.328v2.692h-1.212a.33.33 0 0 0-.33.331v2.223c0 .182.148.331.33.331h1.212v5.336c0 3.175 1.143 3.79 4.306 3.79h.678a1.32 1.32 0 0 0 1.317-1.322v-1.232a.33.33 0 0 0-.33-.332h-1.613a.905.905 0 0 1-.905-.908v-5.336h1.531c.727 0 1.313-.592 1.313-1.318v-1.232a.33.33 0 0 0-.33-.331m4.925 0h-2.744a.33.33 0 0 0-.327.327v11.349c0 .182.149.327.327.327h2.744a.33.33 0 0 0 .326-.327V44.052a.327.327 0 0 0-.326-.327m8.165-.268c-4.357 0-6.804 2.83-6.804 6.27s2.443 6.27 6.804 6.27 6.805-2.774 6.805-6.27-2.444-6.27-6.805-6.27m0 9.847c-2.258 0-3.322-1.653-3.322-3.574 0-2.055 1.064-3.574 3.322-3.574s3.323 1.523 3.323 3.574c0 1.921-1.116 3.575-3.323 3.575" clip-rule="evenodd"/></svg>